Coordinates
version=1
nRows=8
nColumns=33
inDegrees=yes

Units are S.I. units (second, meters, Newtons, ...)
Angles are in degrees.

endheader
time	ground_thorax_rot_x	ground_thorax_rot_y	ground_thorax_rot_z	ground_thorax_tx	ground_thorax_ty	ground_thorax_tz	clav_prot_r	clav_elev_r	scapula_abduction_r	scapula_elevation_r	scapula_upward_rot_r	scapula_winging_r	shoulder_elv_r	plane_of_elev_r	axial_rot_r	elbow_flexion_r	pro_sup_r	wrist_flex_r	wrist_dev_r	clav_prot_l	clav_elev_l	scapula_abduction_l	scapula_elevation_l	scapula_upward_rot_l	scapula_winging_l	shoulder_elv_l	plane_of_elev_l	axial_rot_l	elbow_flexion_l	pro_sup_l	wrist_flex_l	wrist_dev_l
      1.51000000	     36.96872266	      7.65942375	     12.29755237	   -233.40340811	    823.92900308	      2.27968462	     15.92133424	     38.26779821	     39.61224992	     45.00000000	    -45.00000000	   2072.84446387	  -1908.65266850	    147.59693573	   -125.15393574	   1824.67577440	    142.32424217	     13.37673217	      3.73259533	     11.32529910	    -45.00000000	    -39.44913567	     45.00000000	    -45.00000000	  -2062.17579131	   -269.43619890	     17.29061977	   -179.99999979	   1784.34486523	    -31.22122350	     -4.77384234	    -13.58767715
      1.52000000	     36.99418037	      7.67147566	     12.39310347	   -233.11325164	    823.09441379	      2.12517671	     15.91237145	     38.10294928	     39.52623263	     45.00000000	    -45.00000000	   2072.94833054	  -1908.69288011	    147.62549818	   -124.90029356	   1824.80522823	    142.23441139	     13.54063668	      3.76606146	     11.46415487	    -45.00000000	    -39.44075337	     45.00000000	    -45.00000000	  -2062.32062992	   -269.54619515	     17.21045194	   -179.99999979	   1784.31561218	    -30.58216397	     -4.65552944	    -13.26283228
      1.53000000	     36.96211097	      7.80689507	     12.62131399	   -232.65381502	    822.25379275	      1.97740817	     15.94870382	     38.13511890	     39.44040493	     45.00000000	    -45.00000000	   2073.06008302	  -1908.78420823	    147.69260952	   -124.85461011	   1824.87894223	    142.31898943	     13.42831643	      3.88304615	     11.47443210	    -45.00000000	    -39.37460511	     45.00000000	    -45.00000000	  -2062.37250021	   -269.57541896	     17.20480188	   -179.99999979	   1784.33142856	    -30.08530515	     -4.62499998	    -13.23820683
      1.54000000	     36.97069630	      7.78112037	     12.64894000	   -232.06341793	    821.40477819	      1.84191162	     15.94860686	     38.08636320	     39.45716511	     45.00000000	    -45.00000000	   2073.18743329	  -1908.89166401	    147.66736090	   -124.76109011	   1824.82675756	    142.52720824	     13.45619398	      3.96024294	     11.49927316	    -45.00000000	    -39.37288713	     45.00000000	    -45.00000000	  -2062.49782095	   -269.66248767	     17.20922203	   -179.99999979	   1784.26467105	    -29.71592685	     -4.55822642	    -13.09125920
      1.55000000	     37.05489514	      7.86755862	     12.79378695	   -231.39949581	    820.56801157	      1.72480077	     15.97969327	     38.14171539	     39.38336630	     45.00000000	    -45.00000000	   2073.25259406	  -1908.94930923	    147.69763577	   -124.80985481	   1824.86952244	    142.87095204	     13.38968715	      4.08061350	     11.50728150	    -45.00000000	    -39.32081380	     45.00000000	    -45.00000000	  -2062.56686445	   -269.73928910	     17.17376530	   -179.99999979	   1784.28408849	    -29.40788247	     -4.50073466	    -13.02500681
      1.56000000	     37.06429444	      7.95567845	     12.83316566	   -230.71129747	    819.75338540	      1.62816721	     15.85214474	     38.03845483	     39.08658263	     45.00000000	    -45.00000000	   2073.47256255	  -1908.86049149	    147.57668725	   -124.87210358	   1824.89997075	    143.32006630	     13.37759860	      4.16490647	     11.55094669	    -45.00000000	    -39.44046284	     45.00000000	    -45.00000000	  -2062.61899385	   -269.79085402	     17.17852099	   -179.99999979	   1784.21723449	    -29.18783225	     -4.45758268	    -12.92802034
      1.57000000	     37.09300204	      8.05973792	     12.96587973	   -230.05355709	    818.98831645	      1.55474526	     15.75386190	     38.07083257	     39.04790932	     45.00000000	    -45.00000000	   2073.54856561	  -1908.88628640	    147.58714429	   -125.04864649	   1824.91355071	    143.85331199	     13.34045890	      4.28685265	     11.64013839	    -45.00000000	    -39.41199348	     45.00000000	    -45.00000000	  -2062.68371060	   -269.82884087	     17.16467090	   -179.99999979	   1784.24549237	    -29.00964965	     -4.38857711	    -12.86453193
      1.58000000	     37.22398562	      7.88733303	     12.80703825	   -229.45550985	    818.28937432	      1.50531918	     15.88268933	     38.05394087	     39.26645275	     45.00000000	    -45.00000000	   2073.53183743	  -1908.98864410	    147.55627456	   -125.08100698	   1824.90550920	    144.38764154	     13.35721415	      4.33990832	     11.57249318	    -45.00000000	    -39.33713932	     45.00000000	    -45.00000000	  -2062.80035574	   -269.91021750	     17.20582789	   -179.99999979	   1784.13092771	    -28.86704444	     -4.34915594	    -12.78443040
